<?xml version="1.0" standalone="no"?>
<!DOCTYPE svg PUBLIC "-//W3C//DTD SVG 20010904//EN"
 "http://www.w3.org/TR/2001/REC-SVG-20010904/DTD/svg10.dtd">
<svg version="1.0" xmlns="http://www.w3.org/2000/svg"
 width="60pt" height="50pt" viewBox="0 0 400.000000 400.000000"
 preserveAspectRatio="xMidYMid meet">
<metadata>
Created by potrace 1.15, written by Peter Selinger 2001-2017
</metadata>
<g transform="translate(0.000000,400.000000) scale(0.100000,-0.100000)"
stroke="none" fill="rgba(240,128,128,1)">
<path d="M2998 3976 c-6 -14 -20 -26 -31 -28 -11 -2 -26 -12 -33 -23 -20 -30
2 -66 46 -78 19 -5 43 -16 52 -24 16 -15 19 -13 34 22 25 62 29 102 10 130
-22 33 -62 34 -78 1z"/>
<path d="M2823 3974 c-3 -8 -16 -19 -29 -24 -50 -20 -49 -84 3 -96 15 -3 38
-13 51 -21 21 -13 23 -12 37 21 16 37 20 93 9 120 -8 21 -63 21 -71 0z"/>
<path d="M2528 3899 c-10 -5 -18 -17 -18 -24 0 -8 -9 -15 -19 -15 -24 0 -51
-37 -44 -59 8 -23 33 -41 59 -41 12 0 27 -7 34 -15 11 -13 7 -15 -26 -15 -22
0 -65 -11 -97 -24 -50 -21 -57 -22 -51 -8 3 9 11 36 17 59 8 35 7 46 -7 68
-21 32 -56 31 -71 -2 -5 -13 -17 -23 -25 -23 -22 0 -40 -20 -40 -46 0 -26 13
-38 62 -53 44 -15 53 -33 26 -58 -26 -24 -58 -86 -58 -115 0 -19 -3 -17 -18
12 -14 28 -23 35 -47 35 -21 0 -33 -6 -40 -22 -5 -12 -22 -24 -37 -27 -64 -13
-52 -89 16 -107 23 -6 46 -17 53 -26 17 -22 31 -9 46 43 l13 46 13 -69 c18
-100 45 -138 164 -231 162 -127 203 -185 214 -300 2 -31 7 -63 9 -70 10 -33
290 231 394 371 201 269 207 511 15 610 -50 26 -152 27 -207 3 -47 -20 -100
-75 -123 -126 l-18 -40 -35 35 c-19 19 -51 40 -71 46 -52 17 -51 16 -35 54 19
46 18 110 -2 129 -18 19 -23 19 -46 5z"/>
<path d="M3183 3887 c-10 -12 -30 -27 -44 -34 -37 -16 -43 -50 -14 -79 13 -13
33 -24 45 -24 11 0 29 -9 40 -20 20 -20 20 -20 35 17 26 61 30 110 11 138 -20
31 -49 32 -73 2z"/>
<path d="M2678 3860 c-7 -12 -27 -27 -44 -35 -58 -24 -48 -91 16 -108 19 -5
43 -16 53 -25 18 -16 20 -15 32 2 8 10 20 43 26 74 11 46 10 59 -2 81 -19 34
-63 40 -81 11z"/>
<path d="M3270 3733 c-48 -43 -50 -93 -10 -173 27 -54 32 -72 28 -117 -5 -62
-2 -64 83 -34 78 27 150 65 178 95 l24 26 11 -22 c11 -21 17 -25 71 -49 17 -7
33 -15 36 -17 9 -4 39 74 39 104 0 58 -52 87 -82 46 -7 -10 -21 -21 -30 -25
-15 -5 -16 -2 -11 23 7 38 -12 84 -43 105 -30 19 -83 19 -111 0 -20 -14 -22
-14 -28 6 -9 26 -62 59 -97 59 -16 0 -41 -12 -58 -27z"/>
<path d="M850 3531 c-49 -15 -87 -40 -127 -84 -45 -49 -63 -96 -63 -169 0 -49
-4 -55 -29 -39 -12 8 -13 14 -3 36 37 80 33 167 -8 180 -25 8 -57 -10 -65 -35
-3 -11 -15 -20 -25 -20 -11 0 -27 -11 -36 -25 -15 -23 -15 -27 0 -50 9 -14 33
-29 55 -35 21 -5 44 -17 50 -24 10 -12 4 -15 -43 -15 -33 0 -73 -7 -101 -20
l-46 -20 21 26 c29 37 27 81 -4 89 -14 3 -31 2 -38 -2 -7 -5 -21 -7 -31 -6
-47 8 -62 -50 -23 -87 34 -32 37 -56 12 -90 -21 -28 -23 -29 -34 -10 -13 20
-47 26 -57 9 -3 -6 -17 -7 -31 -4 -45 12 -73 -38 -37 -67 9 -8 24 -27 33 -42
l17 -28 30 25 29 25 0 -62 c1 -69 23 -123 80 -193 44 -55 81 -71 237 -101 73
-14 152 -36 177 -48 54 -27 118 -89 145 -139 11 -20 23 -35 27 -34 4 2 23 35
42 73 22 45 35 62 35 48 1 -12 10 -28 21 -36 10 -7 23 -24 28 -38 l10 -24 41
43 c22 24 41 53 42 65 0 17 5 13 20 -18 16 -33 19 -55 15 -117 -2 -43 -2 -78
0 -78 19 0 212 69 258 92 123 62 207 172 192 252 -18 96 -131 147 -213 96
l-33 -20 -15 31 c-17 32 -68 68 -100 70 -11 1 30 9 90 19 133 22 173 34 246
70 119 61 169 165 119 248 -39 64 -135 93 -187 57 -20 -14 -22 -13 -32 18 -19
57 -86 107 -143 107 -35 0 -90 -32 -109 -64 -39 -63 -40 -90 -8 -193 35 -115
36 -155 7 -213 -17 -33 -31 -46 -55 -52 -38 -10 -79 -56 -93 -106 -14 -50 -13
-60 10 -110 19 -42 19 -43 1 -37 -11 3 -25 -1 -33 -9 -9 -9 -20 -11 -28 -6 -8
5 -21 5 -30 0 -12 -6 -4 28 31 133 115 344 105 588 -30 709 -56 52 -139 71
-211 49z"/>
<path d="M1235 3498 c-11 -7 -32 -11 -47 -9 -18 2 -30 -4 -38 -18 -12 -24 -4
-45 29 -75 12 -11 21 -27 21 -38 0 -28 14 -22 59 27 44 48 52 83 25 109 -18
19 -23 19 -49 4z"/>
<path d="M3686 3417 c-13 -13 -25 -29 -27 -36 -4 -11 -11 -10 -36 3 -39 20
-47 20 -88 0 -76 -36 -80 -137 -8 -191 73 -55 113 -100 113 -126 0 -14 4 -28
9 -31 15 -10 139 132 171 196 41 82 41 139 1 179 -38 38 -100 41 -135 6z"/>
<path d="M2077 3362 c-10 -10 -17 -24 -17 -30 0 -6 -6 -9 -14 -6 -18 7 -56
-30 -56 -54 0 -25 26 -47 72 -61 21 -7 42 -20 47 -29 14 -25 51 61 51 120 0
70 -45 102 -83 60z"/>
<path d="M3303 3281 c-12 -11 -23 -25 -25 -32 -3 -10 -10 -8 -28 4 -39 27 -96
22 -131 -12 -24 -24 -29 -38 -29 -78 0 -46 2 -50 66 -110 54 -50 69 -71 79
-108 l11 -47 55 47 c88 75 148 159 163 231 9 39 -14 98 -42 113 -33 18 -96 13
-119 -8z"/>
<path d="M3863 3223 c-7 -2 -13 -11 -13 -18 0 -7 -11 -16 -25 -19 -60 -15 -49
-87 16 -100 17 -3 38 -14 45 -24 11 -16 14 -14 24 13 19 47 24 123 10 140 -12
15 -34 18 -57 8z"/>
<path d="M1895 3180 c-3 -5 -19 -7 -34 -4 -24 5 -32 1 -46 -19 -19 -29 -13
-47 29 -86 14 -14 26 -33 26 -43 0 -10 4 -18 9 -18 14 0 81 78 92 108 15 40
-3 72 -40 72 -16 0 -33 -4 -36 -10z"/>
<path d="M2123 3160 c-38 -23 -61 -64 -69 -123 -5 -38 0 -55 40 -135 48 -96
59 -158 36 -216 -13 -35 3 -34 121 4 174 57 279 130 318 221 16 37 21 62 16
86 -8 44 -57 99 -101 113 -41 14 -96 6 -114 -15 -19 -22 -33 -18 -52 15 -37
65 -131 90 -195 50z"/>
<path d="M3457 3072 c-22 -24 -21 -50 3 -87 11 -16 20 -42 20 -58 l0 -27 48
24 c84 43 119 99 83 135 -23 23 -38 26 -60 12 -10 -6 -22 -5 -35 5 -27 19 -40
18 -59 -4z"/>
<path d="M3682 3044 c-28 -19 -29 -60 -2 -94 11 -14 20 -37 20 -52 0 -25 2
-26 28 -17 39 13 102 67 113 96 17 45 -27 86 -68 64 -13 -6 -24 -5 -38 5 -24
18 -26 17 -53 -2z"/>
<path d="M1903 3006 c-17 -8 -36 -24 -43 -35 -10 -20 -13 -20 -33 -6 -35 25
-100 19 -130 -11 -56 -56 -44 -129 32 -190 56 -44 81 -81 81 -117 0 -14 4 -28
9 -32 16 -10 167 146 195 202 36 72 35 130 -1 165 -36 34 -70 41 -110 24z"/>
<path d="M3925 2996 c-9 -13 -24 -26 -34 -29 -52 -13 -40 -78 16 -92 16 -3 36
-14 45 -22 17 -15 19 -13 33 20 18 44 20 118 3 135 -19 19 -46 14 -63 -12z"/>
<path d="M3021 2946 c-21 -22 -24 -23 -51 -10 -57 29 -120 -15 -120 -83 0 -29
9 -44 60 -92 44 -42 60 -65 60 -84 0 -41 20 -33 87 36 72 72 108 142 99 193
-12 63 -91 87 -135 40z"/>
<path d="M218 2932 c-10 -2 -18 -7 -18 -12 0 -5 -15 -6 -33 -3 -70 11 -89 -52
-33 -107 19 -18 37 -42 39 -54 3 -19 9 -15 54 30 27 28 52 62 55 76 9 50 -18
80 -64 70z"/>
<path d="M3743 2865 c-18 -8 -41 -28 -52 -45 -14 -24 -20 -28 -24 -16 -11 28
-70 56 -116 56 -83 0 -141 -61 -141 -148 0 -60 11 -82 89 -165 72 -77 84 -103
85 -169 1 -21 6 -38 11 -38 20 0 147 92 214 155 155 147 181 310 57 369 -41
19 -80 20 -123 1z"/>
<path d="M2620 2773 c-42 -22 -80 -76 -80 -115 0 -25 -2 -27 -19 -18 -55 29
-142 -3 -178 -66 -27 -46 -29 -93 -7 -137 29 -57 56 -77 138 -103 103 -32 142
-57 167 -105 10 -21 23 -39 28 -39 4 0 28 38 52 84 42 81 45 84 63 68 10 -9
27 -29 36 -45 l17 -27 42 45 c22 24 41 53 41 64 0 27 -29 54 -49 45 -9 -4 -27
-8 -41 -8 -14 -1 -30 -4 -36 -8 -7 -5 -3 20 8 60 22 79 26 172 9 223 -27 82
-116 121 -191 82z"/>
<path d="M3172 2770 c-42 -26 -72 -76 -72 -120 l0 -35 -49 3 c-45 3 -53 1 -90
-33 -56 -50 -70 -99 -47 -159 27 -70 70 -102 158 -115 111 -18 156 -37 186
-82 15 -21 30 -38 33 -39 4 0 19 33 34 73 69 188 85 354 40 443 -13 27 -38 57
-54 67 -39 23 -98 22 -139 -3z"/>
<path d="M205 2721 c-114 -30 -184 -125 -185 -251 0 -115 71 -219 170 -249
l41 -12 -25 -30 c-30 -35 -46 -87 -46 -151 0 -41 -2 -46 -20 -41 -12 3 -29 -2
-39 -11 -13 -11 -21 -14 -26 -7 -10 17 -33 13 -56 -10 -25 -25 -18 -55 22 -87
16 -13 29 -32 29 -43 0 -10 4 -19 9 -19 13 0 91 87 91 102 0 6 13 -9 30 -35
61 -97 161 -139 265 -112 117 31 140 53 232 225 37 68 85 142 106 163 40 40
119 82 175 93 l32 7 0 -61 c0 -68 -12 -107 -42 -139 -16 -18 -18 -23 -7 -27 8
-2 30 -9 49 -15 19 -7 66 -16 105 -22 139 -19 235 26 235 111 0 34 -6 48 -34
76 -23 23 -43 34 -64 34 -25 0 -29 4 -30 26 0 56 -49 104 -107 104 -15 0 -40
-14 -63 -34 l-37 -34 -85 82 c-248 238 -457 363 -625 372 -38 2 -83 0 -100 -5z"/>
<path d="M2035 2718 c-11 -7 -33 -11 -48 -9 -65 6 -76 -51 -22 -110 19 -22 35
-46 35 -55 0 -12 8 -9 33 12 73 62 96 123 59 157 -22 20 -30 20 -57 5z"/>
<path d="M2231 2646 c-8 -9 -24 -12 -50 -9 -32 4 -41 1 -55 -18 -24 -35 -20
-57 21 -97 20 -21 41 -50 48 -66 l12 -28 42 38 c73 65 100 143 63 177 -23 21
-65 22 -81 3z"/>
<path d="M1870 2613 c-8 -3 -20 -12 -26 -19 -9 -12 -17 -12 -37 -3 -22 10 -31
9 -52 -5 -40 -26 -34 -73 15 -121 22 -21 40 -47 40 -56 0 -33 17 -28 62 19 47
48 78 99 78 127 0 17 -43 66 -57 64 -4 0 -15 -3 -23 -6z"/>
<path d="M2055 2488 c-11 -7 -33 -11 -48 -9 -65 6 -76 -51 -22 -110 19 -22 35
-46 35 -55 0 -12 8 -9 33 12 73 62 96 123 59 157 -22 20 -30 20 -57 5z"/>
<path d="M1035 2470 c-3 -6 -17 -7 -31 -4 -29 7 -54 -10 -54 -38 0 -11 13 -35
29 -53 16 -18 31 -39 34 -47 3 -9 15 -3 40 21 46 44 63 82 47 110 -11 22 -54
29 -65 11z"/>
<path d="M3813 2460 c-3 -11 -14 -20 -24 -20 -10 0 -26 -11 -34 -24 -21 -31
-6 -63 33 -72 15 -4 37 -13 50 -21 21 -13 23 -12 37 21 16 37 20 93 9 120 -9
24 -65 21 -71 -4z"/>
<path d="M3380 2381 c-15 -29 -12 -53 10 -81 11 -14 20 -37 20 -52 0 -16 3
-28 8 -28 23 0 114 65 127 91 15 28 15 33 0 56 -14 21 -22 24 -51 20 -18 -3
-36 -1 -39 4 -11 17 -64 10 -75 -10z"/>
<path d="M1355 2368 c-11 -7 -33 -11 -48 -9 -65 6 -76 -51 -22 -110 19 -22 35
-46 35 -54 0 -23 46 10 81 59 32 43 37 86 13 110 -18 19 -32 20 -59 4z"/>
<path d="M1547 2344 c-96 -30 -167 -133 -167 -245 0 -54 28 -132 63 -175 33
-40 116 -84 159 -84 l27 0 -24 -36 c-27 -40 -40 -107 -31 -164 5 -34 4 -38
-14 -33 -11 3 -28 2 -37 -2 -10 -5 -28 -7 -41 -6 -56 6 -68 -44 -22 -96 17
-18 30 -38 30 -44 0 -34 90 62 93 99 1 22 17 20 17 -2 0 -22 80 -106 121 -127
22 -11 59 -20 84 -21 40 -2 43 -4 30 -18 -20 -22 -19 -49 5 -102 10 -24 17
-54 13 -66 -7 -29 17 -29 82 2 54 25 105 76 105 105 0 10 -11 28 -25 41 -22
20 -30 23 -53 14 -22 -8 -31 -6 -49 13 l-21 22 21 7 c12 3 43 19 68 35 52 33
79 77 132 215 19 50 44 109 55 130 30 58 99 119 171 152 l65 29 -88 69 c-180
142 -388 256 -530 289 -77 18 -177 18 -239 -1z"/>
<path d="M2300 2326 c-9 -12 -17 -13 -36 -4 -19 9 -28 8 -44 -7 -29 -27 -25
-62 14 -105 18 -20 36 -43 38 -51 4 -10 16 -4 43 21 62 59 81 113 49 144 -19
20 -48 20 -64 2z"/>
<path d="M2907 2296 c-65 -24 -107 -65 -141 -135 -26 -55 -31 -78 -30 -136 0
-65 5 -80 68 -212 82 -174 92 -236 57 -353 -12 -40 -21 -73 -19 -75 2 -1 39 5
83 15 442 94 728 285 752 504 16 136 -115 276 -259 276 -46 0 -95 -19 -142
-55 l-34 -26 -12 35 c-41 126 -203 207 -323 162z"/>
<path d="M3597 2292 c-22 -24 -21 -50 3 -87 11 -16 20 -40 20 -52 0 -31 19
-29 76 10 63 41 82 78 60 113 -17 25 -54 32 -72 14 -8 -8 -15 -6 -24 5 -17 20
-43 19 -63 -3z"/>
<path d="M100 2210 c-8 -5 -24 -7 -36 -4 -24 6 -54 -19 -54 -45 0 -9 14 -30
30 -46 17 -16 30 -35 30 -42 0 -22 14 -15 52 25 45 45 56 83 33 106 -19 18
-33 20 -55 6z"/>
<path d="M3732 2148 c-7 -7 -12 -18 -12 -26 0 -7 -4 -11 -9 -8 -5 3 -19 -3
-32 -13 -20 -16 -22 -23 -14 -47 8 -21 20 -30 48 -37 21 -5 41 -16 44 -23 9
-25 21 -15 37 33 19 54 20 87 6 114 -12 21 -50 25 -68 7z"/>
<path d="M875 2136 c-12 -8 -32 -12 -51 -9 -26 4 -35 1 -48 -19 -20 -30 -12
-60 25 -87 16 -12 29 -30 29 -41 0 -34 16 -30 57 13 68 70 80 114 41 141 -27
19 -29 20 -53 2z"/>
<path d="M2456 2114 c-21 -21 -20 -54 4 -84 11 -14 20 -37 20 -52 0 -36 15
-35 72 1 75 48 96 92 58 126 -14 12 -28 16 -49 12 -17 -4 -33 -2 -36 3 -10 15
-52 12 -69 -6z"/>
<path d="M2590 1987 c-14 -7 -31 -27 -39 -45 -9 -20 -20 -31 -29 -27 -25 9
-78 -21 -91 -54 -27 -63 6 -110 92 -135 40 -11 63 -26 81 -48 l25 -32 38 79
c33 70 38 89 38 153 0 68 -2 75 -28 98 -32 27 -51 29 -87 11z"/>
<path d="M825 1928 c-126 -24 -239 -110 -265 -203 -45 -159 71 -335 223 -339
29 0 64 3 79 7 26 7 27 6 18 -19 -25 -65 1 -159 62 -229 57 -65 108 -89 188
-90 75 0 134 28 190 92 60 67 69 104 78 295 8 158 11 178 35 229 16 32 49 77
78 104 38 35 47 50 38 56 -25 15 -244 72 -349 90 -113 20 -291 23 -375 7z"/>
<path d="M2339 1907 c-7 -7 -25 -11 -41 -9 -63 9 -76 -41 -24 -98 18 -20 36
-43 39 -51 4 -10 19 0 51 34 35 37 46 57 46 81 0 50 -41 75 -71 43z"/>
<path d="M245 1758 c-11 -7 -32 -11 -46 -9 -29 3 -59 -21 -59 -48 0 -9 16 -32
35 -51 19 -19 35 -42 35 -53 0 -17 2 -17 27 3 32 25 68 75 78 107 4 15 0 28
-14 42 -24 24 -29 25 -56 9z"/>
<path d="M455 1726 c-14 -10 -25 -11 -38 -4 -13 7 -25 5 -43 -7 -36 -23 -32
-64 11 -102 19 -17 35 -38 35 -47 0 -21 6 -20 40 4 63 45 92 138 51 160 -26
13 -33 13 -56 -4z"/>
<path d="M2152 1728 c-18 -18 -14 -59 8 -93 11 -16 20 -40 20 -52 0 -28 6 -28
50 -2 59 35 90 70 90 101 0 36 -39 64 -69 49 -13 -7 -22 -8 -26 -1 -9 14 -58
13 -73 -2z"/>
<path d="M2694 1676 c-17 -8 -38 -24 -47 -36 l-16 -23 -31 27 c-71 59 -193 14
-200 -74 -6 -75 -1 -90 59 -154 71 -76 82 -95 90 -159 l6 -49 75 50 c88 59
178 150 210 212 32 62 31 131 -1 166 -24 26 -77 54 -101 54 -7 -1 -27 -7 -44
-14z"/>
<path d="M2175 1530 c-13 -15 -22 -17 -36 -10 -30 16 -59 11 -84 -15 -39 -38
-33 -70 25 -127 28 -27 50 -54 50 -61 0 -7 5 -19 10 -27 8 -12 16 -8 51 25 71
69 99 113 99 160 0 28 -6 47 -18 58 -25 23 -75 21 -97 -3z"/>
<path d="M520 1515 c-8 -9 -22 -12 -41 -8 -62 12 -83 -59 -30 -98 16 -12 32
-33 36 -47 l6 -25 35 34 c65 62 81 116 42 143 -28 20 -32 20 -48 1z"/>
<path d="M3336 1504 c-9 -8 -16 -20 -16 -25 0 -5 -9 -9 -20 -9 -12 0 -25 -10
-31 -24 -16 -34 3 -64 46 -72 20 -3 40 -14 45 -23 8 -14 11 -14 20 -1 31 47
38 130 12 153 -23 21 -36 21 -56 1z"/>
<path d="M1462 1433 c-16 -6 -42 -57 -42 -83 0 -11 12 -44 26 -72 20 -40 25
-62 21 -95 -4 -42 -4 -43 22 -36 110 26 204 84 228 141 13 32 13 39 0 67 -21
44 -66 62 -106 42 -17 -9 -31 -11 -31 -7 0 5 -10 18 -22 30 -21 19 -66 25 -96
13z"/>
<path d="M2360 1405 c-9 -11 -16 -12 -30 -3 -14 9 -24 8 -44 -5 -37 -24 -34
-59 9 -101 19 -20 35 -42 35 -51 0 -8 3 -15 7 -15 18 0 72 54 93 93 23 43 23
46 7 71 -19 29 -57 35 -77 11z"/>
<path d="M3130 1380 c-19 -19 -22 -19 -43 -5 -30 21 -69 19 -100 -5 -51 -40
-43 -94 23 -167 31 -33 40 -51 40 -78 0 -19 4 -35 9 -35 15 0 84 50 128 93 75
73 94 147 48 192 -30 31 -77 33 -105 5z"/>
<path d="M790 1351 c0 -6 -12 -8 -28 -5 -60 12 -78 -50 -26 -89 13 -10 24 -27
24 -38 0 -28 15 -23 55 16 38 39 53 80 38 104 -11 18 -63 28 -63 12z"/>
<path d="M2785 1316 c-14 -14 -30 -26 -34 -26 -4 0 -16 -9 -26 -20 -27 -30 -7
-66 44 -80 22 -6 41 -16 43 -22 13 -37 53 64 46 117 -2 15 -13 34 -25 42 -20
14 -24 13 -48 -11z"/>
<path d="M2173 1270 c-30 -12 -63 -67 -63 -105 0 -16 14 -57 31 -89 27 -51 31
-67 27 -118 -4 -55 -3 -58 16 -52 195 57 289 122 303 208 13 82 -86 148 -153
101 -20 -13 -22 -12 -33 11 -6 14 -27 32 -46 40 -39 16 -51 16 -82 4z"/>
<path d="M1755 1218 c-11 -6 -23 -16 -27 -22 -5 -8 -11 -7 -20 2 -30 30 -88
-6 -88 -56 0 -19 12 -40 40 -67 22 -21 40 -47 40 -56 0 -33 17 -28 62 19 47
48 78 99 78 127 0 16 -43 65 -57 65 -4 0 -17 -6 -28 -12z"/>
<path d="M2563 1200 c-38 -23 -61 -64 -69 -122 -5 -37 0 -55 40 -133 48 -94
59 -160 36 -219 -12 -33 -8 -33 99 0 174 53 293 130 336 219 22 43 26 62 20
92 -19 102 -129 154 -214 102 -18 -11 -34 -19 -35 -17 -1 2 -8 16 -16 31 -32
63 -132 87 -197 47z"/>
<path d="M1907 1182 c-23 -25 -21 -48 4 -84 12 -16 22 -40 22 -54 0 -31 13
-30 69 5 74 47 96 92 61 126 -11 12 -26 15 -50 12 -18 -3 -35 -1 -38 4 -10 15
-51 10 -68 -9z"/>
<path d="M1307 1114 c-41 -41 -45 -87 -13 -151 l26 -53 -24 15 c-19 13 -29 14
-45 5 -16 -8 -26 -7 -43 4 -54 33 -98 -32 -58 -86 11 -15 23 -41 26 -57 l6
-30 48 24 c53 27 90 67 91 99 0 17 2 16 11 -8 7 -20 7 -39 0 -64 -6 -20 -10
-38 -7 -40 7 -7 120 30 180 60 98 48 145 104 145 171 0 27 -8 42 -35 66 -40
35 -78 40 -115 14 -19 -14 -25 -14 -28 -3 -3 7 -16 24 -30 37 -36 33 -100 32
-135 -3z"/>
<path d="M938 1038 c-25 -20 -27 -50 -5 -87 11 -18 23 -46 26 -62 l6 -30 55
33 c62 38 86 72 76 111 -7 29 -48 46 -69 29 -8 -7 -18 -6 -31 4 -24 17 -37 18
-58 2z"/>
<path d="M2022 1028 c-7 -7 -12 -18 -12 -25 0 -11 -5 -11 -20 -3 -21 11 -57
-1 -72 -24 -12 -17 -9 -61 5 -75 6 -7 -8 -3 -33 10 -67 34 -170 33 -230 -3
-85 -50 -123 -114 -135 -230 -8 -83 6 -118 106 -265 39 -58 80 -129 90 -159
20 -57 24 -144 9 -209 -5 -22 -7 -41 -5 -44 16 -16 317 125 440 206 167 110
259 214 297 335 23 76 23 122 -3 178 -41 92 -121 148 -220 157 -50 5 -67 2
-114 -22 -31 -15 -65 -40 -77 -56 -23 -31 -38 -37 -38 -16 0 8 -14 33 -31 57
l-31 42 32 -18 c17 -10 33 -29 37 -42 5 -22 6 -22 25 -5 58 52 93 157 68 204
-12 22 -68 27 -88 7z"/>
<path d="M2446 974 c-9 -8 -16 -20 -16 -25 0 -5 -9 -9 -20 -9 -12 0 -25 -10
-32 -25 -9 -20 -8 -28 6 -44 10 -11 30 -22 44 -26 15 -4 34 -13 43 -21 15 -13
18 -11 33 26 37 94 -3 180 -58 124z"/>
<path d="M1433 748 c-13 -6 -23 -15 -23 -20 0 -5 -9 -4 -19 2 -29 15 -49 12
-71 -10 -32 -32 -26 -73 15 -109 20 -17 40 -42 45 -56 5 -14 14 -25 19 -25 5
0 32 25 60 55 65 72 76 118 37 152 -30 26 -32 26 -63 11z"/>
</g>
</svg>
