<?xml version="1.0" standalone="no"?>
<!DOCTYPE svg PUBLIC "-//W3C//DTD SVG 20010904//EN"
 "http://www.w3.org/TR/2001/REC-SVG-20010904/DTD/svg10.dtd">
<svg version="1.0" xmlns="http://www.w3.org/2000/svg"
 width="30px" height="30px" viewBox="0 0 1090.000000 886.000000"
 preserveAspectRatio="xMidYMid meet">
<metadata>
Created by potrace 1.15, written by Peter Selinger 2001-2017
</metadata>
<g transform="translate(0.000000,886.000000) scale(0.100000,-0.100000)"
fill="rgba(240,128,128,1)" stroke="none">
<path d="M2382 8840 c-488 -74 -951 -276 -1342 -586 -124 -99 -352 -332 -454
-464 -323 -421 -524 -923 -576 -1443 -16 -156 -8 -556 14 -697 20 -124 74
-352 111 -465 165 -503 853 -1379 1940 -2470 1166 -1170 2564 -2345 3129
-2631 115 -58 120 -59 199 -59 79 0 86 2 187 52 486 242 1549 1089 2675 2132
252 234 1035 1014 1235 1231 674 730 1101 1312 1247 1698 41 111 90 303 120
470 26 147 27 175 28 452 0 236 -4 317 -18 405 -106 654 -378 1184 -833 1625
-214 207 -437 362 -709 495 -261 128 -535 213 -821 254 -198 30 -618 30 -814
1 -909 -134 -1707 -710 -2109 -1524 -39 -77 -85 -181 -104 -230 -19 -48 -37
-84 -39 -80 -3 5 -24 56 -48 114 -344 862 -1128 1510 -2050 1694 -199 40 -277
46 -570 45 -214 -1 -302 -5 -398 -19z"/>
</g>
</svg>
